<mxfile host="app.diagrams.net" modified="2024-05-21T01:31:51.313Z" agent="Mozilla/5.0 (Windows NT 10.0; Win64; x64) AppleWebKit/537.36 (KHTML, like Gecko) Chrome/124.0.0.0 Safari/537.36" version="24.4.0" etag="_RoVqCyQkxZSUOCJvAdK" type="github">
  <diagram name="Page-1" id="Xhq7yer0kK9SFkx9mDkW">
    <mxGraphModel>
      <root>
        <mxCell id="0" />
        <mxCell id="1" parent="0" />
      </root>
    </mxGraphModel>
  </diagram>
</mxfile>
